<svg width="160" height="11" viewBox="0 0 160 11" fill="none" xmlns="http://www.w3.org/2000/svg">
<path d="M1.1582 0.5C11.7846 0.779406 22.417 1.336 33.0576 1.91016C42.3662 2.41244 51.6821 2.9288 60.999 3.28223L64.9922 3.42285C81.0926 3.94128 97.3369 3.404 113.509 3.45703C129.696 3.51011 145.85 4.15376 161.858 7.02344C161.925 7.03603 162.105 7.14085 162.272 7.53125C162.428 7.89293 162.522 8.39546 162.496 8.94531C162.468 9.49855 162.328 9.94305 162.156 10.2188C161.976 10.5085 161.847 10.501 161.823 10.4971C145.757 7.61521 129.563 6.9771 113.385 6.92676C98.2008 6.87951 83.0622 7.35023 67.998 6.98242L64.9863 6.89746C54.3521 6.55096 43.717 5.95997 33.0762 5.38574C23.7674 4.8834 14.4547 4.39385 5.14355 4.0918L1.15234 3.97363H1.15137C1.11287 3.97273 0.95182 3.92697 0.774414 3.57422C0.63082 3.28863 0.52537 2.88407 0.503906 2.41504L0.5 2.21094C0.503979 1.6549 0.624436 1.18172 0.791016 0.868164C0.968356 0.53443 1.12183 0.499945 1.1582 0.5Z" fill="#118DA8" stroke="black"/>
</svg>
